
<svg data-v-423bf9ae="" xmlns="http://www.w3.org/2000/svg" viewBox="0 0 767 90" class="iconLeft"><!----><!----><!----><g data-v-423bf9ae="" id="ed615ae0-1d13-4c05-b205-7668aa9db717" fill="#22B926" transform="matrix(4.5836515890443295,0,0,4.5836515890443295,133.78012799132648,14.037432144575082)"><path d="M2.72 10.50L2.72 6.10L7.14 6.10L7.14 4.62L2.72 4.62L2.72 1.90L7.98 1.90L7.98 0.42L1.06 0.42L1.06 10.50ZM10.39 10.50L10.39 6.82C10.39 5.40 10.99 4.47 12.19 4.47C12.63 4.47 12.91 4.59 13.19 4.77L13.54 3.39C13.20 3.12 12.81 3.01 12.25 3.01C11.30 3.01 10.72 3.50 10.26 4.48L10.26 3.22L8.83 3.22L8.83 10.50ZM20.72 7.28C20.73 7.21 20.73 6.85 20.73 6.66C20.73 4.44 19.43 3.01 17.36 3.01C15.40 3.01 13.93 4.35 13.93 6.86C13.93 9.37 15.40 10.71 17.36 10.71C19.01 10.71 20.17 9.93 20.64 8.37L19.17 8.06C18.96 8.93 18.26 9.42 17.46 9.42C16.45 9.42 15.58 8.76 15.48 7.28ZM17.35 4.31C18.40 4.31 19.07 5.05 19.12 6.13L15.53 6.13C15.71 4.89 16.53 4.31 17.35 4.31ZM28.41 7.28C28.42 7.21 28.42 6.85 28.42 6.66C28.42 4.44 27.12 3.01 25.05 3.01C23.09 3.01 21.62 4.35 21.62 6.86C21.62 9.37 23.09 10.71 25.05 10.71C26.70 10.71 27.86 9.93 28.32 8.37L26.85 8.06C26.64 8.93 25.94 9.42 25.14 9.42C24.14 9.42 23.27 8.76 23.17 7.28ZM25.03 4.31C26.08 4.31 26.75 5.05 26.81 6.13L23.21 6.13C23.39 4.89 24.22 4.31 25.03 4.31ZM35.55 10.50L35.55 4.44L37.02 4.44L37.02 3.22L35.55 3.22L35.55 2.90C35.55 2.17 35.83 1.79 36.48 1.79C36.71 1.79 37.09 1.85 37.28 1.93L37.52 0.67C37.28 0.56 36.69 0.45 36.19 0.45C34.73 0.45 34.03 1.39 34.03 2.93L34.03 3.22L32.94 3.22L32.94 4.44L34.03 4.44L34.03 10.50ZM37.69 6.86C37.69 9.37 39.17 10.71 41.17 10.71C43.16 10.71 44.65 9.37 44.65 6.86C44.65 4.35 43.16 3.01 41.17 3.01C39.17 3.01 37.69 4.35 37.69 6.86ZM39.24 6.86C39.24 5.10 40.11 4.31 41.17 4.31C42.22 4.31 43.09 5.10 43.09 6.86C43.09 8.62 42.22 9.42 41.17 9.42C40.11 9.42 39.24 8.62 39.24 6.86ZM47.49 10.50L47.49 6.82C47.49 5.40 48.09 4.47 49.29 4.47C49.73 4.47 50.01 4.59 50.29 4.77L50.64 3.39C50.30 3.12 49.91 3.01 49.35 3.01C48.40 3.01 47.82 3.50 47.36 4.48L47.36 3.22L45.93 3.22L45.93 10.50ZM55.27 5.46C55.27 8.41 56.99 10.71 60.07 10.71C63.14 10.71 64.86 8.41 64.86 5.46C64.86 2.52 63.14 0.21 60.07 0.21C56.99 0.21 55.27 2.52 55.27 5.46ZM56.99 5.46C56.99 3.22 58.17 1.62 60.07 1.62C61.96 1.62 63.15 3.22 63.15 5.46C63.15 7.70 61.96 9.30 60.07 9.30C58.09 9.30 56.99 7.70 56.99 5.46ZM67.93 13.30L67.93 9.79C68.35 10.39 69.01 10.71 69.78 10.71C71.69 10.71 72.93 9.23 72.93 6.86C72.93 4.49 71.72 3.01 69.80 3.01C68.88 3.01 68.21 3.47 67.79 4.17L67.79 3.22L66.37 3.22L66.37 13.30ZM67.77 6.86C67.77 5.17 68.68 4.31 69.61 4.31C70.62 4.31 71.37 5.17 71.37 6.86C71.37 8.57 70.63 9.42 69.59 9.42C68.56 9.42 67.77 8.57 67.77 6.86ZM80.58 7.28C80.60 7.21 80.60 6.85 80.60 6.66C80.60 4.44 79.30 3.01 77.22 3.01C75.26 3.01 73.79 4.35 73.79 6.86C73.79 9.37 75.26 10.71 77.22 10.71C78.88 10.71 80.04 9.93 80.50 8.37L79.03 8.06C78.82 8.93 78.12 9.42 77.32 9.42C76.31 9.42 75.45 8.76 75.35 7.28ZM77.21 4.31C78.26 4.31 78.93 5.05 78.99 6.13L75.39 6.13C75.57 4.89 76.40 4.31 77.21 4.31ZM83.45 10.50L83.45 6.54C83.45 5.10 84.18 4.33 85.18 4.33C86.17 4.33 86.55 4.98 86.55 6.09L86.55 10.50L88.10 10.50L88.10 6.03C88.10 4.30 87.56 3.01 85.54 3.01C84.59 3.01 83.86 3.37 83.33 4.27L83.33 3.22L81.90 3.22L81.90 10.50ZM93.48 7.28C93.63 9.52 95.06 10.71 97.65 10.71C99.47 10.71 101.42 9.74 101.42 7.67C101.42 6.08 100.39 5.29 98.92 4.87C97.96 4.61 96.64 4.23 96.18 4.05C95.65 3.85 95.41 3.49 95.41 3.01C95.41 2.07 96.36 1.62 97.37 1.62C98.71 1.62 99.33 2.31 99.46 3.40L101.09 3.30C100.95 1.20 99.60 0.21 97.31 0.21C95.56 0.21 93.81 1.16 93.81 3.14C93.81 4.09 94.11 5.05 95.90 5.61C96.50 5.81 98.06 6.19 98.59 6.38C99.39 6.68 99.68 7.11 99.68 7.74C99.68 8.72 98.85 9.30 97.59 9.30C96.15 9.30 95.20 8.64 95.09 7.17L93.48 7.28ZM102.51 6.86C102.51 9.37 103.99 10.71 105.99 10.71C107.98 10.71 109.47 9.37 109.47 6.86C109.47 4.35 107.98 3.01 105.99 3.01C103.99 3.01 102.51 4.35 102.51 6.86ZM104.06 6.86C104.06 5.10 104.93 4.31 105.99 4.31C107.04 4.31 107.91 5.10 107.91 6.86C107.91 8.62 107.04 9.42 105.99 9.42C104.93 9.42 104.06 8.62 104.06 6.86ZM115.40 3.22L115.40 7.18C115.40 8.64 114.69 9.41 113.68 9.41C112.69 9.41 112.31 8.75 112.31 7.63L112.31 3.22L110.75 3.22L110.75 7.69C110.75 9.42 111.30 10.71 113.32 10.71C114.27 10.71 115.00 10.28 115.53 9.45L115.53 10.50L116.96 10.50L116.96 3.22ZM120.22 10.50L120.22 6.82C120.22 5.40 120.82 4.47 122.02 4.47C122.46 4.47 122.74 4.59 123.02 4.77L123.37 3.39C123.03 3.12 122.64 3.01 122.08 3.01C121.13 3.01 120.55 3.50 120.09 4.48L120.09 3.22L118.66 3.22L118.66 10.50ZM125.31 6.86C125.31 5.10 126.13 4.31 127.15 4.31C127.93 4.31 128.55 4.75 128.77 5.81L130.28 5.52C129.89 3.85 128.72 3.01 127.15 3.01C125.17 3.01 123.76 4.35 123.76 6.86C123.76 9.37 125.17 10.71 127.15 10.71C128.72 10.71 129.89 9.88 130.28 8.22L128.77 7.92C128.55 8.97 127.93 9.42 127.15 9.42C126.11 9.42 125.31 8.62 125.31 6.86ZM137.96 7.28C137.97 7.21 137.97 6.85 137.97 6.66C137.97 4.44 136.67 3.01 134.60 3.01C132.64 3.01 131.17 4.35 131.17 6.86C131.17 9.37 132.64 10.71 134.60 10.71C136.25 10.71 137.41 9.93 137.87 8.37L136.40 8.06C136.19 8.93 135.49 9.42 134.69 9.42C133.69 9.42 132.82 8.76 132.72 7.28ZM134.58 4.31C135.63 4.31 136.30 5.05 136.36 6.13L132.76 6.13C132.94 4.89 133.77 4.31 134.58 4.31Z"></path></g><!----><g data-v-423bf9ae="" id="b991706f-6f3e-4577-8ff6-73669931f75f" transform="matrix(1.3521633561447168,0,0,1.3521633561447168,0.6805950101975498,-0.013174155115599717)" stroke="none" fill="#22B926"><g data-name="Layer 2"><path d="M86.75 19.48a1 1 0 0 0-1 1v32.74c0 4.14-3.11 7.51-6.93 7.51h-9l-1.64-1.63h7.15a9.06 9.06 0 0 0 8.79-9.28V17.94a1 1 0 0 0-2 0v31.88a7.06 7.06 0 0 1-6.79 7.28h-9.15l-1.62-1.62h6.94a9 9 0 0 0 9-9V20.1a9 9 0 0 0-9-9h-6.94l8.54-8.54A1.5 1.5 0 0 0 71 .44L60.32 11.1H20.18L9.52.44A1.5 1.5 0 0 0 7.4 2.56l8.54 8.54H9a9 9 0 0 0-9 9v26.38a9 9 0 0 0 9 9h6.94l-1.62 1.62H6.51a1 1 0 0 0 0 2h5.81l-1.62 1.63H8.77a1 1 0 0 0-.07 2L7.4 64a1.5 1.5 0 1 0 2.12 2.12l3.42-3.42h54.63L71 66.14A1.5 1.5 0 0 0 73.1 64l-1.29-1.29h7c4.92 0 8.93-4.27 8.93-9.51V20.48a1 1 0 0 0-.99-1zM42.37 33.29l5.5-5.5a9.35 9.35 0 0 1 0 11zm3.38 7.62a9.35 9.35 0 0 1-11 0l5.5-5.5zm-5.5-9.75l-5.5-5.5a9.35 9.35 0 0 1 11 0zm-2.12 2.12l-5.5 5.5a9.35 9.35 0 0 1 0-11zm-4.81 9.05a11.34 11.34 0 0 0 13.86 0l11.14 11.15H22.18zm45.18 4.15a7 7 0 0 1-7 7h-7.17A15.19 15.19 0 0 1 78.5 38.77zm0-26.38v7.71A15.75 15.75 0 0 1 63.8 13.1h7.7a7 7 0 0 1 7 7zm0 9.71v7a17.19 17.19 0 0 0-16.15 16.45l-13-13a11.34 11.34 0 0 0 0-13.86l12.52-12.61A17.74 17.74 0 0 0 78.5 29.81zM58.32 13.1L47.18 24.24a11.34 11.34 0 0 0-13.86 0L22.18 13.1zM2 20.1a7 7 0 0 1 7-7h7.71A15.75 15.75 0 0 1 2 27.81zm0 26.38v-7.71a15.75 15.75 0 0 1 14.71 14.71H9a7 7 0 0 1-7-7zm0-9.71v-7a17.74 17.74 0 0 0 16.63-16L31.2 26.36a11.34 11.34 0 0 0 0 13.86L18.63 52.79A17.74 17.74 0 0 0 2 36.77zm18.18 18.71h40.14l1.62 1.62H18.56zm-5.25 5.25l1.62-1.62h47.39l1.62 1.62z" data-name="Layer 40"></path></g></g><!----></svg>
